<?xml version="1.0" standalone="no"?>
<!DOCTYPE svg PUBLIC "-//W3C//DTD SVG 20010904//EN"
 "http://www.w3.org/TR/2001/REC-SVG-20010904/DTD/svg10.dtd">
<svg version="1.0" xmlns="http://www.w3.org/2000/svg"
 width="300.000000pt" height="300.000000pt" viewBox="0 0 300.000000 300.000000"
 preserveAspectRatio="xMidYMid meet">
<metadata>
Created by potrace 1.11, written by Peter Selinger 2001-2013
</metadata>
<g transform="translate(0.000000,300.000000) scale(0.100000,-0.100000)"
fill="#000000" stroke="none">
<path d="M0 1500 l0 -1500 1500 0 1500 0 0 1500 0 1500 -1500 0 -1500 0 0
-1500z m1578 1062 c9 -3 113 -86 231 -185 l216 -179 3 168 c2 139 5 171 19
186 14 16 36 18 199 18 153 0 185 -3 198 -16 14 -13 16 -61 16 -368 l0 -352
190 -157 c162 -134 190 -162 190 -185 0 -18 -20 -50 -61 -99 -49 -59 -66 -73
-89 -73 -22 0 -144 97 -610 485 -320 267 -583 485 -585 485 -2 0 -265 -218
-585 -485 -466 -388 -588 -485 -610 -485 -23 0 -40 14 -89 73 -41 48 -61 81
-61 99 0 23 82 95 625 547 369 308 636 523 652 527 16 3 33 7 38 9 12 5 91 -4
113 -13z m410 -825 l472 -389 0 -414 c0 -455 0 -458 -60 -489 -24 -12 -84 -15
-360 -15 l-330 0 0 320 0 320 -215 0 -215 0 0 -320 0 -320 -330 0 c-276 0
-336 3 -360 15 -60 31 -60 34 -60 489 l0 414 481 396 c288 237 485 393 492
389 7 -4 225 -182 485 -396z"/>
</g>
</svg>
